<?xml version="1.0" encoding="utf-8"?>
<svg width="627" height="159" viewBox="0 0 627 159" xmlns="http://www.w3.org/2000/svg">
  <g fill="none" fill-rule="evenodd">
    <polyline points="12.762 32.222 .938 32.222 .938 158.016 126.693 158.016 126.693 146.192 12.762 146.192 12.762 32.222" style="fill: rgb(255, 255, 255);"/>
    <polyline points="56.341 .638 56.341 32.208 126.699 32.208 126.699 102.303 158.4 102.303 158.4 .638 56.341 .638" style="fill: rgb(255, 255, 255);"/>
    <path d="M41.49 102.682C36.184 102.682 30.963 99.424 30.963 90.579 30.963 81.737 36.184 78.524 41.49 78.524 44.742 78.524 47.022 79.453 49.264 81.829L46.004 84.997C44.52 83.364 43.346 82.758 41.49 82.758 39.673 82.758 38.137 83.507 37.115 84.858 36.089 86.159 35.718 87.835 35.718 90.579 35.718 93.329 36.089 95.051 37.115 96.352 38.137 97.702 39.673 98.45 41.49 98.45 43.346 98.45 44.52 97.841 46.004 96.21L49.264 99.335C47.022 101.706 44.742 102.682 41.49 102.682M67.365 85.458C66.624 83.692 64.953 82.479 62.705 82.479 60.474 82.479 58.752 83.692 58.012 85.458 57.537 86.53 57.455 87.231 57.404 88.673L68.02 88.673C67.977 87.231 67.838 86.53 67.365 85.458zM57.404 91.977C57.404 96.026 59.551 98.587 63.407 98.587 66.068 98.587 67.461 97.841 69.133 96.165L72.158 99.007C69.739 101.428 67.461 102.682 63.318 102.682 57.404 102.682 52.711 99.561 52.711 90.579 52.711 82.944 56.658 78.524 62.705 78.524 69.036 78.524 72.721 83.176 72.721 89.883L72.721 91.977 57.404 91.977zM86.638 102.682C82.781 102.682 79.51 102.032 76.722 99.284L79.848 96.165C81.748 98.12 84.306 98.633 86.638 98.633 89.522 98.633 91.801 97.606 91.801 95.372 91.801 93.792 90.918 92.768 88.645 92.581L84.865 92.258C80.451 91.885 77.893 89.883 77.893 85.739 77.893 81.128 81.844 78.524 86.785 78.524 90.318 78.524 93.336 79.27 95.525 81.174L92.553 84.204C91.061 82.944 88.965 82.479 86.732 82.479 83.886 82.479 82.445 83.737 82.445 85.503 82.445 86.905 83.199 87.973 85.713 88.204L89.434 88.534C93.854 88.905 96.461 90.999 96.461 95.188 96.461 100.122 92.271 102.682 86.638 102.682" style="fill: rgb(255, 255, 255);"/>
    <polygon points="102.229 102.401 106.974 102.401 106.974 78.805 102.229 78.805" style="fill: rgb(255, 255, 255);"/>
    <path d="M193.303 19.691L197.917 19.691 192.395 25.748 189.327 25.737 193.303 19.691zM197.917 44.06L187.309 44.06 187.309 54.69 199.668 54.69 199.668 57.924 183.539 57.924 183.539 27.931 199.462 27.931 199.462 31.165 187.309 31.165 187.309 40.826 197.917 40.826 197.917 44.06zM223.719 48.386C223.554 51.6 222.65 54.061 221.009 55.771 219.368 57.481 217.049 58.336 214.056 58.336 211.048 58.336 208.659 57.192 206.887 54.906 205.116 52.619 204.232 49.519 204.232 45.605L204.232 40.167C204.232 36.267 205.141 33.184 206.96 30.918 208.78 28.652 211.263 27.519 214.408 27.519 217.306 27.519 219.544 28.384 221.132 30.114 222.718 31.845 223.581 34.324 223.719 37.551L219.906 37.551C219.741 35.107 219.228 33.362 218.363 32.319 217.498 31.275 216.179 30.753 214.408 30.753 212.362 30.753 210.787 31.553 209.688 33.153 208.59 34.753 208.04 37.098 208.04 40.188L208.04 45.688C208.04 48.722 208.553 51.05 209.577 52.671 210.6 54.291 212.092 55.101 214.056 55.101 216.019 55.101 217.434 54.614 218.299 53.639 219.164 52.664 219.7 50.913 219.906 48.386L223.719 48.386M244.987 40.311C244.987 37.139 244.464 34.78 243.43 33.236 242.391 31.69 240.802 30.918 238.661 30.918 236.586 30.918 235.019 31.701 233.955 33.266 232.89 34.832 232.352 37.139 232.338 40.188L232.338 45.564C232.338 48.627 232.87 50.961 233.934 52.568 234.998 54.174 236.586 54.978 238.702 54.978 240.816 54.978 242.382 54.236 243.398 52.753 244.414 51.27 244.946 48.997 244.987 45.935L244.987 40.311zM248.754 45.564C248.754 49.657 247.884 52.808 246.14 55.019 244.396 57.23 241.914 58.336 238.702 58.336 235.612 58.336 233.171 57.261 231.377 55.112 229.587 52.963 228.658 49.924 228.589 45.997L228.589 40.352C228.589 36.342 229.473 33.201 231.245 30.928 233.016 28.655 235.488 27.519 238.661 27.519 241.819 27.519 244.282 28.607 246.046 30.784 247.811 32.961 248.712 36.068 248.754 40.105L248.754 45.564z" style="fill: rgb(255, 255, 255);"/>
    <polyline points="258.797 54.69 270.557 54.69 270.557 57.924 255.007 57.924 255.007 27.931 258.797 27.931 258.797 54.69" style="fill: rgb(255, 255, 255);"/>
    <polyline points="289.852 44.06 279.241 44.06 279.241 54.69 291.6 54.69 291.6 57.924 275.473 57.924 275.473 27.931 291.394 27.931 291.394 31.165 279.241 31.165 279.241 40.826 289.852 40.826 289.852 44.06" style="fill: rgb(255, 255, 255);"/>
    <path d="M187.309 75.696L187.309 99.222 190.336 99.222C192.987 99.222 194.923 98.463 196.145 96.943 197.368 95.424 197.993 93.175 198.02 90.191L198.02 84.871C198.02 81.71 197.412 79.39 196.198 77.913 194.98 76.435 193.145 75.696 190.687 75.696L187.309 75.696zM183.539 102.455L183.539 72.463 190.687 72.463C194.189 72.463 196.908 73.557 198.844 75.748 200.781 77.938 201.748 81.017 201.748 84.986L201.748 90.011C201.748 93.98 200.767 97.049 198.803 99.211 196.839 101.373 193.99 102.455 190.254 102.455L183.539 102.455zM207.999 80.908L205.962 79.424C207.034 77.626 207.587 75.758 207.628 73.822L207.628 70.814 211.236 70.814 211.236 73.595C211.208 74.914 210.902 76.249 210.318 77.601 209.734 78.955 208.96 80.056 207.999 80.908" style="fill: rgb(255, 255, 255);"/>
    <polygon points="216.825 102.455 220.597 102.455 220.597 72.463 216.825 72.463" style="fill: rgb(255, 255, 255);"/>
    <polyline points="247.22 102.455 243.43 102.455 231.418 79.342 231.418 102.455 227.63 102.455 227.63 72.463 231.418 72.463 243.471 95.679 243.471 72.463 247.22 72.463 247.22 102.455" style="fill: rgb(255, 255, 255);"/>
    <path d="M272.937 98.728L272.279 99.552C270.383 101.763 267.609 102.867 263.956 102.867 260.715 102.867 258.172 101.793 256.326 99.644 254.478 97.494 253.533 94.457 253.492 90.529L253.492 84.638C253.492 80.434 254.334 77.286 256.016 75.191 257.699 73.097 260.216 72.05 263.567 72.05 266.423 72.05 268.658 72.843 270.271 74.429 271.884 76.015 272.773 78.285 272.937 81.238L269.17 81.238C269.019 79.37 268.499 77.911 267.614 76.86 266.728 75.809 265.384 75.285 263.585 75.285 261.429 75.285 259.85 75.988 258.847 77.396 257.845 78.803 257.324 81.052 257.282 84.144L257.282 90.259C257.282 93.281 257.859 95.599 259.012 97.213 260.165 98.826 261.823 99.634 263.979 99.634 266.011 99.634 267.554 99.14 268.612 98.156L269.17 97.642 269.17 90.754 263.691 90.754 263.691 87.521 272.937 87.521 272.937 98.728M289.285 64.222L293.898 64.222 288.377 70.279 285.306 70.268 289.285 64.222zM293.898 88.593L283.288 88.593 283.288 99.222 295.647 99.222 295.647 102.455 279.52 102.455 279.52 72.463 295.441 72.463 295.441 75.696 283.288 75.696 283.288 85.357 293.898 85.357 293.898 88.593z" style="fill: rgb(255, 255, 255);"/>
    <polyline points="320.479 102.455 316.69 102.455 304.683 79.342 304.683 102.455 300.891 102.455 300.891 72.463 304.683 72.463 316.731 95.679 316.731 72.463 320.479 72.463 320.479 102.455" style="fill: rgb(255, 255, 255);"/>
    <polygon points="327.595 102.455 331.366 102.455 331.366 72.463 327.595 72.463" style="fill: rgb(255, 255, 255);"/>
    <polyline points="352.78 88.593 342.169 88.593 342.169 99.222 354.528 99.222 354.528 102.455 338.401 102.455 338.401 72.463 354.321 72.463 354.321 75.696 342.169 75.696 342.169 85.357 352.78 85.357 352.78 88.593" style="fill: rgb(255, 255, 255);"/>
    <path d="M377.651 72.463L377.651 93.785C377.624 96.627 376.8 98.851 375.181 100.459 373.558 102.064 371.3 102.867 368.403 102.867 365.436 102.867 363.171 102.082 361.604 100.509 360.04 98.935 359.243 96.695 359.216 93.785L359.216 72.463 362.964 72.463 362.964 93.625C362.964 95.64 363.395 97.146 364.251 98.142 365.112 99.134 366.493 99.634 368.403 99.634 370.325 99.634 371.718 99.134 372.573 98.142 373.435 97.146 373.862 95.64 373.862 93.625L373.862 72.463 377.651 72.463M387.671 87.088L392.245 87.088C393.825 87.088 395.085 86.58 396.024 85.562 396.968 84.543 397.435 83.181 397.435 81.474 397.435 77.623 395.692 75.696 392.202 75.696L387.671 75.696 387.671 87.088zM392.944 90.324L387.671 90.324 387.671 102.455 383.88 102.455 383.88 72.463 392.286 72.463C395.226 72.463 397.45 73.228 398.958 74.759 400.472 76.291 401.224 78.532 401.224 81.485 401.224 83.34 400.817 84.957 400.003 86.336 399.183 87.717 398.026 88.758 396.528 89.459L402.339 102.207 402.339 102.455 398.28 102.455 392.944 90.324zM419.796 94.873C419.796 93.377 419.394 92.232 418.583 91.435 417.772 90.638 416.308 89.861 414.192 89.105 412.077 88.351 410.462 87.558 409.343 86.728 408.224 85.896 407.386 84.949 406.829 83.884 406.274 82.82 405.995 81.601 405.995 80.228 405.995 77.852 406.788 75.895 408.374 74.357 409.96 72.819 412.036 72.05 414.604 72.05 416.362 72.05 417.929 72.443 419.302 73.228 420.675 74.011 421.731 75.103 422.474 76.504 423.216 77.902 423.587 79.438 423.587 81.114L419.796 81.114C419.796 79.259 419.352 77.825 418.46 76.808 417.567 75.793 416.28 75.285 414.604 75.285 413.081 75.285 411.899 75.711 411.061 76.564 410.224 77.416 409.808 78.613 409.808 80.154 409.808 81.42 410.261 82.48 411.167 83.332 412.073 84.185 413.474 84.949 415.37 85.623 418.321 86.599 420.433 87.8 421.702 89.23 422.972 90.658 423.608 92.525 423.608 94.832 423.608 97.263 422.817 99.211 421.237 100.674 419.659 102.136 417.511 102.867 414.792 102.867 413.048 102.867 411.436 102.486 409.96 101.724 408.485 100.963 407.323 99.89 406.479 98.509 405.632 97.131 405.212 95.547 405.212 93.761L409.001 93.761C409.001 95.615 409.52 97.056 410.558 98.088 411.595 99.117 413.007 99.634 414.792 99.634 416.454 99.634 417.704 99.209 418.542 98.357 419.38 97.506 419.796 96.343 419.796 94.873" style="fill: rgb(255, 255, 255);"/>
  </g>
</svg>