<?xml version="1.0" encoding="utf-8"?>
<svg width="156" height="156" xmlns="http://www.w3.org/2000/svg">
  <g>
    <title>Layer 1</title>
    <g stroke="null">
      <g stroke="null" fill-rule="evenodd" fill="none">
        <polyline stroke="null" points="11.823989868164062,31.583999633789062 0,31.583999633789062 0,157.37802124023438 125.75497436523438,157.37802124023438 125.75497436523438,145.55401611328125 11.823989868164062,145.55401611328125 11.823989868164062,31.583999633789062 " style="fill: rgb(255, 255, 255);"/>
        <polyline stroke="null" points="54.40301513671875,0 54.40301513671875,31.57000732421875 124.760986328125,31.57000732421875 124.760986328125,101.66500854492188 156.46197509765625,101.66500854492188 156.46197509765625,0 54.40301513671875,0 " style="fill: rgb(255, 255, 255);"/>
        <path stroke="null" d="m40.552,102.044c-5.306,0 -10.527,-3.258 -10.527,-12.103c0,-8.842 5.221,-12.055 10.527,-12.055c3.252,0 5.532,0.929 7.774,3.305l-3.26,3.168c-1.484,-1.633 -2.658,-2.239 -4.514,-2.239c-1.817,0 -3.353,0.749 -4.375,2.1c-1.026,1.301 -1.397,2.977 -1.397,5.721c0,2.75 0.371,4.472 1.397,5.773c1.022,1.35 2.558,2.098 4.375,2.098c1.856,0 3.03,-0.609 4.514,-2.24l3.26,3.125c-2.242,2.371 -4.522,3.347 -7.774,3.347m25.875,-17.224c-0.741,-1.766 -2.412,-2.979 -4.66,-2.979c-2.231,0 -3.953,1.213 -4.693,2.979c-0.475,1.072 -0.557,1.773 -0.608,3.215l10.616,0c-0.043,-1.442 -0.182,-2.143 -0.655,-3.215zm-9.961,6.519c0,4.049 2.147,6.61 6.003,6.61c2.661,0 4.054,-0.746 5.726,-2.422l3.025,2.842c-2.419,2.421 -4.697,3.675 -8.84,3.675c-5.914,0 -10.607,-3.121 -10.607,-12.103c0,-7.635 3.947,-12.055 9.994,-12.055c6.331,0 10.016,4.652 10.016,11.359l0,2.094l-15.317,0zm29.234,10.705c-3.857,0 -7.128,-0.65 -9.916,-3.398l3.126,-3.119c1.9,1.955 4.458,2.468 6.79,2.468c2.884,0 5.163,-1.027 5.163,-3.261c0,-1.58 -0.883,-2.604 -3.156,-2.791l-3.78,-0.323c-4.414,-0.373 -6.972,-2.375 -6.972,-6.519c0,-4.611 3.951,-7.215 8.892,-7.215c3.533,0 6.551,0.746 8.74,2.65l-2.972,3.03c-1.492,-1.26 -3.588,-1.725 -5.821,-1.725c-2.846,0 -4.287,1.258 -4.287,3.024c0,1.402 0.754,2.47 3.268,2.701l3.721,0.33c4.42,0.371 7.027,2.465 7.027,6.654c0,4.934 -4.19,7.494 -9.823,7.494" style="fill: rgb(255, 255, 255);"/>
        <polygon stroke="null" points="101.291015625,101.76300048828125 106.03598022460938,101.76300048828125 106.03598022460938,78.1669921875 101.291015625,78.1669921875 " style="fill: rgb(255, 255, 255);"/>
      </g>
    </g>
  </g>
</svg>